<svg xmlns="http://www.w3.org/2000/svg" width="55" height="55" viewBox="0 0 55 55">
  <defs>
    <style>
      .cls-1, .cls-3 {
        fill: #fff826;
      }

      .cls-2, .cls-3 {
        stroke: none;
      }
    </style>
  </defs>
  <g id="Path_1" data-name="Path 1" class="cls-1">
    <path class="cls-2" d="M 27.5 54.5 C 23.85479927062988 54.5 20.31891059875488 53.78619003295898 16.99053955078125 52.37841033935547 C 13.77544975280762 51.01855087280273 10.88790988922119 49.07167816162109 8.408120155334473 46.59188079833984 C 5.928319931030273 44.11209106445313 3.981450080871582 41.22454833984375 2.62158989906311 38.00946044921875 C 1.213809967041016 34.68109130859375 0.5 31.14520072937012 0.5 27.5 C 0.5 23.85479927062988 1.213809967041016 20.31891059875488 2.62158989906311 16.99053955078125 C 3.981450080871582 13.77544975280762 5.928319931030273 10.88790988922119 8.408120155334473 8.408120155334473 C 10.88790988922119 5.928319931030273 13.77544975280762 3.981450080871582 16.99053955078125 2.62158989906311 C 20.31891059875488 1.213809967041016 23.85479927062988 0.5 27.5 0.5 C 31.14520072937012 0.5 34.68109130859375 1.213809967041016 38.00946044921875 2.62158989906311 C 41.22454833984375 3.981450080871582 44.11209106445313 5.928319931030273 46.59188079833984 8.408120155334473 C 49.07167816162109 10.88790988922119 51.01855087280273 13.77544975280762 52.37841033935547 16.99053955078125 C 53.78619003295898 20.31891059875488 54.5 23.85479927062988 54.5 27.5 C 54.5 31.14520072937012 53.78619003295898 34.68109130859375 52.37841033935547 38.00946044921875 C 51.01855087280273 41.22454833984375 49.07167816162109 44.11209106445313 46.59188079833984 46.59188079833984 C 44.11209106445313 49.07167816162109 41.22454833984375 51.01855087280273 38.00946044921875 52.37841033935547 C 34.68109130859375 53.78619003295898 31.14520072937012 54.5 27.5 54.5 Z"/>

  </g>
</svg>
